<svg width="15" height="15" viewBox="0 0 15 15" fill="none" xmlns="http://www.w3.org/2000/svg">
<path d="M9.04693 7.5L4.45318 2.90625C4.29693 2.75 4.22131 2.565 4.22631 2.35125C4.23131 2.1375 4.31214 1.95271 4.46881 1.79688C4.62506 1.64062 4.81006 1.5625 5.02381 1.5625C5.23756 1.5625 5.42235 1.64062 5.57818 1.79688L10.3751 6.60938C10.5001 6.73438 10.5938 6.875 10.6563 7.03125C10.7188 7.1875 10.7501 7.34375 10.7501 7.5C10.7501 7.65625 10.7188 7.8125 10.6563 7.96875C10.5938 8.125 10.5001 8.26562 10.3751 8.39062L5.56256 13.2031C5.40631 13.3594 5.22401 13.435 5.01568 13.43C4.80735 13.425 4.62506 13.3442 4.46881 13.1875C4.31256 13.0312 4.23443 12.8462 4.23443 12.6325C4.23443 12.4187 4.31256 12.234 4.46881 12.0781L9.04693 7.5Z" fill="black" fill-opacity="0.5"/>
</svg>
