<svg width="23" height="23" viewBox="0 0 23 23" fill="none" xmlns="http://www.w3.org/2000/svg">
<path d="M18.7833 20.125L12.7458 14.0875C12.2667 14.4708 11.7156 14.7743 11.0927 14.9979C10.4698 15.2215 9.80694 15.3333 9.10417 15.3333C7.36319 15.3333 5.88992 14.7302 4.68433 13.524C3.47875 12.3178 2.87564 10.8445 2.875 9.10417C2.875 7.36319 3.47811 5.88992 4.68433 4.68433C5.89056 3.47875 7.36383 2.87564 9.10417 2.875C10.8451 2.875 12.3187 3.47811 13.525 4.68433C14.7312 5.89056 15.334 7.36383 15.3333 9.10417C15.3333 9.80694 15.2215 10.4698 14.9979 11.0927C14.7743 11.7156 14.4708 12.2667 14.0875 12.7458L20.125 18.7833L18.7833 20.125ZM9.10417 13.4167C10.3021 13.4167 11.3205 12.9976 12.1593 12.1593C12.9982 11.3211 13.4173 10.3027 13.4167 9.10417C13.4167 7.90625 12.9976 6.88818 12.1593 6.04996C11.3211 5.21174 10.3027 4.79231 9.10417 4.79167C7.90625 4.79167 6.88818 5.2111 6.04996 6.04996C5.21174 6.88882 4.79231 7.90689 4.79167 9.10417C4.79167 10.3021 5.2111 11.3205 6.04996 12.1593C6.88882 12.9982 7.90689 13.4173 9.10417 13.4167Z" fill="black"/>
</svg>
