<svg width="30" height="30" viewBox="0 0 30 30" fill="none" xmlns="http://www.w3.org/2000/svg">
<path d="M11.25 6.25001C10.9185 6.25001 10.6005 6.38171 10.3661 6.61613C10.1317 6.85055 10 7.16849 10 7.50001C10 7.83153 10.1317 8.14947 10.3661 8.38389C10.6005 8.61832 10.9185 8.75001 11.25 8.75001C11.5815 8.75001 11.8995 8.61832 12.1339 8.38389C12.3683 8.14947 12.5 7.83153 12.5 7.50001C12.5 7.16849 12.3683 6.85055 12.1339 6.61613C11.8995 6.38171 11.5815 6.25001 11.25 6.25001ZM7.7125 6.25001C7.97075 5.5181 8.44967 4.8843 9.08325 4.436C9.71683 3.98769 10.4739 3.74695 11.25 3.74695C12.0261 3.74695 12.7832 3.98769 13.4167 4.436C14.0503 4.8843 14.5292 5.5181 14.7875 6.25001H23.75C24.0815 6.25001 24.3995 6.38171 24.6339 6.61613C24.8683 6.85055 25 7.16849 25 7.50001C25 7.83153 24.8683 8.14947 24.6339 8.38389C24.3995 8.61832 24.0815 8.75001 23.75 8.75001H14.7875C14.5292 9.48193 14.0503 10.1157 13.4167 10.564C12.7832 11.0123 12.0261 11.2531 11.25 11.2531C10.4739 11.2531 9.71683 11.0123 9.08325 10.564C8.44967 10.1157 7.97075 9.48193 7.7125 8.75001H6.25C5.91848 8.75001 5.60054 8.61832 5.36612 8.38389C5.1317 8.14947 5 7.83153 5 7.50001C5 7.16849 5.1317 6.85055 5.36612 6.61613C5.60054 6.38171 5.91848 6.25001 6.25 6.25001H7.7125ZM18.75 13.75C18.4185 13.75 18.1005 13.8817 17.8661 14.1161C17.6317 14.3505 17.5 14.6685 17.5 15C17.5 15.3315 17.6317 15.6495 17.8661 15.8839C18.1005 16.1183 18.4185 16.25 18.75 16.25C19.0815 16.25 19.3995 16.1183 19.6339 15.8839C19.8683 15.6495 20 15.3315 20 15C20 14.6685 19.8683 14.3505 19.6339 14.1161C19.3995 13.8817 19.0815 13.75 18.75 13.75ZM15.2125 13.75C15.4708 13.0181 15.9497 12.3843 16.5833 11.936C17.2168 11.4877 17.9739 11.2469 18.75 11.2469C19.5261 11.2469 20.2832 11.4877 20.9167 11.936C21.5503 12.3843 22.0292 13.0181 22.2875 13.75H23.75C24.0815 13.75 24.3995 13.8817 24.6339 14.1161C24.8683 14.3505 25 14.6685 25 15C25 15.3315 24.8683 15.6495 24.6339 15.8839C24.3995 16.1183 24.0815 16.25 23.75 16.25H22.2875C22.0292 16.9819 21.5503 17.6157 20.9167 18.064C20.2832 18.5123 19.5261 18.7531 18.75 18.7531C17.9739 18.7531 17.2168 18.5123 16.5833 18.064C15.9497 17.6157 15.4708 16.9819 15.2125 16.25H6.25C5.91848 16.25 5.60054 16.1183 5.36612 15.8839C5.1317 15.6495 5 15.3315 5 15C5 14.6685 5.1317 14.3505 5.36612 14.1161C5.60054 13.8817 5.91848 13.75 6.25 13.75H15.2125ZM11.25 21.25C10.9185 21.25 10.6005 21.3817 10.3661 21.6161C10.1317 21.8505 10 22.1685 10 22.5C10 22.8315 10.1317 23.1495 10.3661 23.3839C10.6005 23.6183 10.9185 23.75 11.25 23.75C11.5815 23.75 11.8995 23.6183 12.1339 23.3839C12.3683 23.1495 12.5 22.8315 12.5 22.5C12.5 22.1685 12.3683 21.8505 12.1339 21.6161C11.8995 21.3817 11.5815 21.25 11.25 21.25ZM7.7125 21.25C7.97075 20.5181 8.44967 19.8843 9.08325 19.436C9.71683 18.9877 10.4739 18.7469 11.25 18.7469C12.0261 18.7469 12.7832 18.9877 13.4167 19.436C14.0503 19.8843 14.5292 20.5181 14.7875 21.25H23.75C24.0815 21.25 24.3995 21.3817 24.6339 21.6161C24.8683 21.8505 25 22.1685 25 22.5C25 22.8315 24.8683 23.1495 24.6339 23.3839C24.3995 23.6183 24.0815 23.75 23.75 23.75H14.7875C14.5292 24.4819 14.0503 25.1157 13.4167 25.564C12.7832 26.0123 12.0261 26.2531 11.25 26.2531C10.4739 26.2531 9.71683 26.0123 9.08325 25.564C8.44967 25.1157 7.97075 24.4819 7.7125 23.75H6.25C5.91848 23.75 5.60054 23.6183 5.36612 23.3839C5.1317 23.1495 5 22.8315 5 22.5C5 22.1685 5.1317 21.8505 5.36612 21.6161C5.60054 21.3817 5.91848 21.25 6.25 21.25H7.7125Z" fill="#D50000"/>
</svg>
